<?xml version="1.0" standalone="no"?>
<!DOCTYPE svg PUBLIC "-//W3C//DTD SVG 20010904//EN"
 "http://www.w3.org/TR/2001/REC-SVG-20010904/DTD/svg10.dtd">
<svg version="1.0" xmlns="http://www.w3.org/2000/svg"
 width="1328.000000pt" height="1328.000000pt" viewBox="0 0 1328.000000 1328.000000"
 preserveAspectRatio="xMidYMid meet">
<metadata>
Created by potrace 1.11, written by Peter Selinger 2001-2013
</metadata>
<g transform="translate(0.000000,1328.000000) scale(0.100000,-0.100000)"
fill="#000000" stroke="none">
<path d="M1247 10484 c-1 -1 -36 -4 -77 -8 -95 -7 -119 -12 -205 -37 -342
-102 -612 -413 -668 -774 -30 -193 0 -401 83 -566 34 -67 429 -745 461 -791
10 -15 19 -29 19 -32 0 -3 25 -46 55 -97 30 -50 55 -93 55 -94 0 -2 19 -34 42
-71 42 -69 221 -374 263 -449 13 -22 80 -137 150 -255 70 -118 137 -233 150
-255 12 -22 89 -152 170 -290 81 -137 157 -266 168 -285 10 -19 64 -111 120
-205 55 -93 108 -183 117 -200 34 -59 111 -190 120 -205 12 -20 183 -311 284
-483 45 -76 88 -150 97 -165 9 -15 94 -160 188 -322 95 -162 205 -349 245
-415 39 -66 73 -124 75 -130 2 -5 15 -27 28 -48 13 -21 32 -53 42 -70 10 -18
56 -95 101 -172 46 -77 94 -160 108 -185 14 -25 42 -72 62 -105 20 -33 40 -67
44 -75 4 -8 12 -24 19 -35 7 -11 39 -65 72 -120 33 -55 64 -108 70 -117 5 -9
17 -29 26 -45 42 -78 107 -183 140 -228 258 -356 740 -487 1155 -314 74 31
195 105 244 149 14 12 34 30 45 39 54 43 151 181 247 351 19 33 58 100 273
465 45 77 189 322 320 545 325 555 404 690 427 728 l20 33 28 -44 c15 -25 39
-64 53 -88 13 -24 76 -132 139 -239 214 -365 384 -654 643 -1095 141 -242 277
-470 302 -506 143 -215 411 -379 663 -406 255 -28 473 25 682 165 72 47 185
159 235 233 35 50 253 419 253 427 0 3 6 13 14 21 7 9 25 36 38 61 14 25 87
151 163 280 76 129 175 298 220 375 45 77 119 202 164 279 44 76 81 140 81
143 0 2 9 16 19 31 10 15 112 187 226 382 115 195 236 402 270 460 34 58 110
186 168 285 138 237 129 221 232 397 50 84 95 160 100 170 6 10 69 117 140
239 72 121 137 233 145 247 9 15 61 104 118 199 56 95 102 177 102 183 0 5 5
10 10 10 6 0 10 4 10 9 0 5 47 89 105 186 58 98 121 205 141 239 19 33 39 68
44 76 6 8 46 77 90 153 44 75 116 199 160 275 44 75 84 144 90 152 13 20 72
120 85 145 6 11 72 124 146 250 123 210 179 313 183 340 1 6 4 15 8 20 20 34
50 217 50 310 0 104 -28 261 -61 340 -97 233 -248 404 -453 514 -74 40 -198
85 -259 94 -19 3 -56 9 -84 13 -38 5 -2111 10 -2305 5 -35 -1 -36 -3 -145
-188 -60 -104 -140 -239 -177 -301 -37 -63 -68 -115 -68 -117 0 -1 -38 -66
-85 -144 -47 -79 -85 -145 -85 -148 0 -3 -8 -17 -19 -31 -10 -15 -30 -47 -43
-72 -25 -44 -151 -258 -357 -608 -56 -95 -112 -190 -124 -211 -12 -21 -65
-111 -117 -200 -52 -89 -103 -176 -114 -194 -62 -107 -195 -334 -236 -402 -62
-105 -191 -325 -205 -350 -6 -11 -44 -76 -84 -145 -41 -69 -100 -170 -133
-225 -32 -55 -63 -107 -68 -115 -5 -8 -35 -60 -67 -114 -32 -55 -69 -118 -82
-140 -13 -23 -107 -183 -208 -356 -102 -173 -211 -358 -241 -410 -31 -52 -90
-153 -133 -225 -42 -71 -102 -175 -134 -230 -32 -55 -91 -156 -132 -225 -40
-69 -77 -131 -81 -139 -15 -26 -28 -22 -45 11 -15 30 -39 71 -86 150 -22 36
-80 136 -101 173 -10 17 -84 143 -165 280 -81 138 -157 267 -169 288 -11 20
-61 106 -111 190 -49 83 -97 164 -105 178 -8 14 -49 83 -90 153 -41 70 -84
144 -96 164 -11 20 -58 100 -104 177 -45 77 -91 154 -100 170 -10 17 -35 59
-56 95 -21 36 -45 77 -54 92 -8 14 -89 153 -180 307 -91 155 -172 294 -181
309 -9 15 -71 122 -139 237 -111 188 -313 533 -440 750 -102 174 -328 559
-423 720 -55 94 -109 186 -120 205 -10 19 -38 67 -61 105 -24 39 -100 169
-171 290 -70 121 -134 226 -141 234 -11 12 -180 14 -1124 15 -612 1 -1112 0
-1113 0z"/>
<path d="M5357 10482 c-9 -2 -17 -5 -17 -7 0 -3 29 -53 64 -112 218 -369 645
-1097 777 -1323 36 -63 120 -205 184 -315 65 -110 143 -244 174 -297 31 -54
60 -96 65 -95 6 2 264 433 369 617 11 19 41 71 67 115 26 44 86 145 133 225
46 80 153 261 236 402 83 141 151 260 151 263 0 3 5 11 10 18 6 7 28 41 48 77
50 84 209 356 234 398 15 24 16 32 6 33 -42 3 -2487 3 -2501 1z"/>
</g>
</svg>
